<svg xmlns="http://www.w3.org/2000/svg" viewBox="0 0 960 450" width="100%">
<style>text{font-family:'SF Mono','Fira Code',Menlo,'Courier New',monospace}</style>
<defs>
  <linearGradient id="ht-bg" x1="0%" y1="0%" x2="100%" y2="100%">
    <stop offset="0%" stop-color="#0f0f1a"/>
    <stop offset="100%" stop-color="#1a1a2e"/>
  </linearGradient>
  <linearGradient id="ht-gl" x1="0%" y1="0%" x2="100%" y2="0%">
    <stop offset="0%"   stop-color="#f59e0b" stop-opacity="0"/>
    <stop offset="30%"  stop-color="#f59e0b" stop-opacity="0.9"/>
    <stop offset="50%"  stop-color="#fbbf24" stop-opacity="1"/>
    <stop offset="70%"  stop-color="#f59e0b" stop-opacity="0.9"/>
    <stop offset="100%" stop-color="#f59e0b" stop-opacity="0"/>
  </linearGradient>
  <marker id="ht-arr" markerWidth="7" markerHeight="6" refX="3.5" refY="6" orient="auto">
    <polygon points="0 0, 7 0, 3.5 6" fill="#92400e"/>
  </marker>
  <filter id="ht-glow" x="-25%" y="-25%" width="150%" height="150%">
    <feGaussianBlur in="SourceGraphic" stdDeviation="5" result="b"/>
    <feMerge><feMergeNode in="b"/><feMergeNode in="SourceGraphic"/></feMerge>
  </filter>
</defs>
<rect width="960" height="450" fill="url(#ht-bg)"/>
<rect x="379" y="29" width="202" height="84" fill="none" stroke="#f59e0b" stroke-width="3" opacity="0.25" rx="3" filter="url(#ht-glow)"/>
<rect x="380" y="30" width="200" height="82" fill="#0f172a" stroke="#f59e0b" stroke-width="1.5" rx="2"/>
<rect x="380" y="30" width="200" height="3" fill="url(#ht-gl)"/>
<polygon points="466,58 468,46 475,53 480,42 485,53 492,46 494,58" fill="#f59e0b"/>
<rect x="466" y="58" width="28" height="5" rx="1" fill="#f59e0b"/>
<text x="480" y="86" text-anchor="middle" font-size="15" fill="#f59e0b" font-weight="800" letter-spacing="0.1em" font-family="-apple-system,BlinkMacSystemFont,'Segoe UI',sans-serif">DON</text>
<text x="480" y="101" text-anchor="middle" font-size="10.5" fill="#d97706" font-style="italic" font-family="-apple-system,BlinkMacSystemFont,'Segoe UI',sans-serif">Supreme authority</text>
<line x1="480" y1="112" x2="480" y2="135" stroke="#92400e" stroke-width="1.5"/>
<line x1="210" y1="135" x2="750" y2="135" stroke="#92400e" stroke-width="1.5"/>
<line x1="210" y1="135" x2="210" y2="150" stroke="#92400e" stroke-width="1.5" marker-end="url(#ht-arr)"/>
<line x1="480" y1="135" x2="480" y2="150" stroke="#92400e" stroke-width="1.5" marker-end="url(#ht-arr)"/>
<line x1="750" y1="135" x2="750" y2="150" stroke="#92400e" stroke-width="1.5" marker-end="url(#ht-arr)"/>
<circle cx="210" cy="135" r="3" fill="#d97706"/>
<circle cx="480" cy="135" r="3" fill="#d97706"/>
<circle cx="750" cy="135" r="3" fill="#d97706"/>
<rect x="110" y="150" width="200" height="66" fill="#0f172a" stroke="#f59e0b" stroke-width="1.2" stroke-dasharray="5,3" rx="2"/>
<text x="120" y="171" font-size="13" fill="#fbbf24" font-weight="700" font-style="italic" font-family="-apple-system,BlinkMacSystemFont,'Segoe UI',sans-serif">Consigliere</text>
<text x="120" y="187" font-size="8.5" fill="#4b5563">gangsta:</text>
<text x="120" y="198" font-size="8.5" fill="#4b5563">:the-consigliere</text>
<text x="120" y="210" font-size="8" fill="#57534e" font-style="italic">Outside chain of command</text>
<rect x="380" y="150" width="200" height="66" fill="#0f172a" stroke="#92400e" stroke-width="0.5" rx="2"/>
<rect x="380" y="150" width="200" height="2" fill="url(#ht-gl)"/>
<rect x="380" y="150" width="2.5" height="66" fill="#d97706" opacity="0.6" rx="2"/>
<text x="394" y="171" font-size="13" fill="#fcd34d" font-weight="700" font-family="-apple-system,BlinkMacSystemFont,'Segoe UI',sans-serif">Underboss</text>
<text x="394" y="187" font-size="8.5" fill="#4b5563">gangsta:</text>
<text x="394" y="198" font-size="8.5" fill="#4b5563">:the-underboss</text>
<rect x="650" y="150" width="200" height="66" fill="#0f172a" stroke="#92400e" stroke-width="0.5" rx="2"/>
<rect x="650" y="150" width="200" height="2" fill="url(#ht-gl)"/>
<rect x="660" y="162" width="11" height="14" rx="1" fill="none" stroke="#f59e0b" stroke-width="1"/>
<line x1="665" y1="162" x2="665" y2="176" stroke="#f59e0b" stroke-width="0.8"/>
<text x="677" y="171" font-size="13" fill="#fcd34d" font-weight="700" font-style="italic" font-family="-apple-system,BlinkMacSystemFont,'Segoe UI',sans-serif">The Ledger</text>
<text x="660" y="187" font-size="8.5" fill="#4b5563">gangsta:</text>
<text x="660" y="198" font-size="8.5" fill="#4b5563">:the-ledger</text>
<text x="660" y="210" font-size="8" fill="#57534e" font-style="italic">Institutional memory</text>
<line x1="480" y1="216" x2="480" y2="278" stroke="#92400e" stroke-width="1.5" marker-end="url(#ht-arr)"/>
<rect x="380" y="278" width="200" height="64" fill="#0f172a" stroke="#92400e" stroke-width="0.5" rx="2"/>
<rect x="380" y="278" width="200" height="2" fill="url(#ht-gl)"/>
<rect x="380" y="278" width="2.5" height="64" fill="#d97706" opacity="0.4" rx="2"/>
<text x="394" y="299" font-size="13" fill="#e5c677" font-weight="700" font-family="-apple-system,BlinkMacSystemFont,'Segoe UI',sans-serif">Crew Lead</text>
<text x="394" y="315" font-size="8.5" fill="#4b5563">gangsta:</text>
<text x="394" y="326" font-size="8.5" fill="#4b5563">:the-capo</text>
<line x1="480" y1="342" x2="480" y2="380" stroke="#92400e" stroke-width="1.5" marker-end="url(#ht-arr)"/>
<rect x="340" y="380" width="280" height="64" fill="#0c0c16" stroke="#334155" stroke-width="0.8" rx="2"/>
<rect x="340" y="380" width="280" height="2" fill="#334155" opacity="0.6"/>
<text x="480" y="402" text-anchor="middle" font-size="13" fill="#94a3b8" font-weight="600" font-family="-apple-system,BlinkMacSystemFont,'Segoe UI',sans-serif">Workers / Associates</text>
<text x="480" y="418" text-anchor="middle" font-size="9.5" fill="#475569" font-style="italic" font-family="-apple-system,BlinkMacSystemFont,'Segoe UI',sans-serif">Stateless code execution</text>
</svg>