<?xml version="1.0" encoding="utf-8"?>
<svg xmlns="http://www.w3.org/2000/svg" viewBox="0 0 165 119">
  <g style="" transform="matrix(0.226522, 0, 0, 0.226522, 23.738961, 24.628652)">
    <g transform="matrix(1, 0, 0, 1, -175.999985, -336.39679)">
      <path d="M 430.5 729.49 C 418.3 731.32 392.27 731.31 379 729.48 C 360.33 726.9 343.7 722.97 322 716.01 C 313.55 713.3 284.84 701.81 272 696 C 233.93 678.78 209.58 672.24 179.85 671.27 C 158.54 670.58 149.12 671.77 122.11 678.6 C 99.11 684.4 95.19 684.84 87.17 682.46 C 76.88 679.4 71.21 670.97 72.3 660.33 C 73.3 650.73 79.42 642.54 103 619.3 C 111.25 611.17 118 604.24 118 603.9 C 118 603.55 114.88 600.95 111.06 598.11 C 97.35 587.92 86.34 572.37 81.73 556.71 C 78.56 545.94 78.58 522.67 81.77 511.67 C 86.52 495.29 103.23 463.2 125.86 427 C 133.48 414.81 155.12 384.23 162.3 375.5 C 181.38 352.3 207.15 328.36 231.36 311.33 C 260.19 291.05 292.41 274.12 321.5 263.96 C 336.24 258.8 370.45 249.53 378.24 248.57 C 383.38 247.93 384.25 247.47 386.7 244.07 C 390.52 238.76 399.78 233.07 409.36 230.17 C 416.38 228.04 419.49 227.7 432 227.68 C 453.33 227.65 463.81 230.53 473.78 239.16 C 477.01 241.95 477.31 242 489.28 242.01 C 511.26 242.03 548.56 247.28 575 254.09 C 592.85 258.68 620.96 267.68 630.77 271.95 C 634.47 273.56 640.2 275.98 643.5 277.33 C 675.7 290.47 701.52 307.38 724.55 330.44 C 753 358.91 769.44 392.87 775.68 436 C 777.9 451.39 778.14 485.11 776.14 502 C 772.26 534.78 763.57 561.5 752.34 575.2 C 747.67 580.89 747.7 580.79 746.04 598 C 744.6 613.02 741.53 627.81 739.19 630.98 C 736.78 634.24 732.16 636.41 722.39 638.88 C 694.71 645.86 652.74 648.52 608.79 646.07 L 587.08 644.86 L 573.29 657.01 C 524.11 700.32 481.83 721.78 430.5 729.49 Z M 483 630.35 C 488.47 630.87 522 631.05 522 630.57 C 522 630.33 522.65 627.05 523.44 623.28 C 525.87 611.73 526.91 591.58 525.97 574.39 C 524.73 551.86 519.36 517.74 512.45 488.5 C 510.5 480.25 508.23 470.58 507.41 467 C 506.59 463.42 504.61 456.23 503.01 451 C 501.42 445.77 499.41 438.53 498.54 434.89 C 497.68 431.26 495.83 424.96 494.43 420.89 C 493.03 416.83 491.04 410.35 490.01 406.5 C 487.73 397.93 477.32 367.53 475.38 363.78 C 474.61 362.28 472.8 357.78 471.36 353.78 C 468.48 345.78 466.11 340.38 456.25 319.5 C 452.62 311.8 448.33 303.55 446.72 301.18 C 445.12 298.8 443.72 296.31 443.62 295.64 C 443.53 294.98 442.2 292.31 440.68 289.72 L 437.92 285 L 429.64 285 C 425.09 285 418.78 284.52 415.62 283.94 L 409.88 282.88 L 400.33 290.56 C 386.8 301.45 371.56 316.39 358.58 331.5 C 337.38 356.17 323 377.67 293 429.5 C 288.23 437.75 282.91 446.86 281.19 449.75 C 279.46 452.64 278.38 455.01 278.78 455.02 C 279.17 455.02 278.99 455.36 278.36 455.77 C 277.74 456.17 273.61 462.4 269.19 469.61 C 264.78 476.83 259.12 485.91 256.63 489.79 C 249.56 500.83 238.41 522.69 235.35 531.5 C 232.82 538.79 232.57 540.8 232.54 554 C 232.5 569.67 234.25 577.99 238.02 580.01 C 239.04 580.55 242.51 581 245.74 581 C 253.74 581 280.07 584.34 296.99 587.5 C 310.94 590.1 344.1 598.63 366.5 605.38 C 391.93 613.04 398.74 615.04 404.52 616.54 C 407.81 617.39 414.72 619.21 419.88 620.58 C 434.98 624.59 455.33 627.74 483 630.35 Z M 532.02 629.75 C 532.02 629.81 532.02 629.86 532.01 629.91 C 532.01 630.22 532 630.45 532.11 630.61 C 532.43 631.11 533.82 630.92 539.51 630.13 C 539.83 630.09 540.16 630.04 540.5 629.99 C 569.97 625.92 590.25 619.08 608.13 607.2 C 616.51 601.63 641.89 577.59 649.01 568.49 C 651.48 565.33 654.54 561.56 655.81 560.12 L 658.11 557.5 L 657.51 560 C 656.38 564.69 645.17 586.49 641.43 591.27 C 639.38 593.89 637.98 596.32 638.33 596.66 C 639.02 597.36 666.88 594.47 677 592.66 L 683.5 591.49 L 687.77 584 C 690.12 579.87 693.68 571.55 695.68 565.5 C 698.98 555.55 699.37 553.21 699.77 540.95 C 700.18 528.42 699.99 526.46 697.17 514.89 C 694.17 502.54 691.72 495.6 683.79 477 C 674.97 456.3 659.04 428.45 647.43 413.41 C 645.27 410.62 642.16 406.57 640.51 404.41 C 633.82 395.64 623.68 383.99 615.34 375.49 C 606.53 366.5 581.62 343.85 577.42 341 C 576.2 340.17 571.67 336.76 567.35 333.42 C 546.87 317.55 524.15 303.62 497.5 290.61 C 474.94 279.59 467.61 276.57 465.25 277.33 C 464.29 277.64 460.06 279.16 455.85 280.7 L 448.21 283.51 L 450.13 287.26 C 451.18 289.32 452.48 291 453 291 C 453.53 291 454.25 292.24 454.6 293.75 C 454.95 295.26 457.15 300.1 459.49 304.5 C 461.83 308.9 465.44 316.33 467.52 321 C 469.6 325.67 471.69 329.65 472.16 329.84 C 472.63 330.02 472.76 330.58 472.45 331.09 C 472.14 331.59 472.28 332 472.77 332 C 473.27 332 473.68 332.56 473.69 333.25 C 473.7 333.94 476 340.12 478.79 347 C 488.75 371.49 497.25 395.68 502.87 415.5 C 515.82 461.17 519.57 476.1 527.04 511.83 C 528.88 520.65 531.67 538.65 533.96 556.5 C 535.63 569.53 535.4 609 533.59 619.5 C 532.73 624.45 532.03 629.06 532.02 629.75 Z M 387 717.31 C 394.71 718.12 415.01 717.92 423.46 716.96 C 438.52 715.23 457.32 711.03 469 706.77 C 478.82 703.19 497.35 694.83 503.5 691.21 C 529.37 675.96 549.44 661.54 563.42 648.16 L 569.34 642.5 L 563.42 641.8 C 560.16 641.41 551.65 641.61 544.5 642.23 C 515.36 644.78 472.93 642.95 443.5 637.88 C 423.17 634.37 387.49 625.06 355.5 614.93 C 325.32 605.37 284.34 596.7 256.5 593.97 C 226.76 591.06 191.36 593.15 161.5 599.59 C 154.9 601.01 148.6 602.31 147.5 602.48 C 146.4 602.65 142.35 604.05 138.5 605.59 C 132.13 608.14 130.04 609.82 115.14 624.44 C 85.49 653.53 78.75 664.72 87.96 669.48 C 92.28 671.71 97.39 671.36 110.64 667.93 C 146.13 658.73 154.89 657.5 179.47 658.28 C 209.73 659.24 232.33 664.83 267.5 680.06 C 274.1 682.91 283.1 686.81 287.5 688.71 C 307.2 697.24 334.08 706.81 349 710.6 C 357.52 712.77 377.77 716.34 387 717.31 Z M 125.5 592.32 C 128.25 593.73 131.18 594.71 132 594.49 C 132.82 594.27 137.1 593.11 141.5 591.93 C 153.78 588.61 155.79 588.13 166 586.06 C 177.57 583.71 199.43 581.2 215.14 580.4 L 226.78 579.82 L 224.8 574.17 C 221.63 565.14 221.19 548.62 223.85 538.11 C 227.6 523.3 235.25 506.51 246.46 488.5 C 249.89 483 256.13 472.98 260.34 466.24 C 264.55 459.49 268 453.77 268 453.52 C 268 453.27 270.18 449.56 272.84 445.28 C 275.5 441 279.62 434.12 282 430 C 284.37 425.88 287.02 421.38 287.89 420 C 290.52 415.79 292.87 411.72 295.47 406.82 C 296.84 404.25 300.96 397.27 304.62 391.32 C 308.29 385.37 312.22 378.92 313.37 377 C 315.76 372.96 325.37 358.69 328.18 355 C 329.22 353.62 333.29 348.23 337.22 343 C 352.66 322.47 379.94 294.07 394.04 283.85 C 398.12 280.9 398.76 278.78 395.75 278.19 C 393.94 277.84 359.67 290.95 359.17 292.19 C 358.98 292.63 358.06 293 357.12 293 C 356.17 293 354.97 293.38 354.45 293.83 C 353.93 294.29 351.25 295.48 348.5 296.48 C 330.61 302.96 275.93 333.2 253.5 349.02 C 237.74 360.13 232.98 363.61 223.46 370.97 C 187.05 399.12 151.48 434.41 120.1 473.51 C 96.84 502.49 88.83 521.98 91.82 542.32 C 92.48 546.82 93.7 552.45 94.53 554.82 C 100.02 570.53 112.5 585.64 125.5 592.32 Z M 697 587.6 C 697 589.61 715.11 583.99 726.95 578.31 C 743.95 570.15 753.41 554.06 759.46 523 C 768.87 474.76 766.19 432.15 751.4 394.58 C 748.37 386.88 745.52 380.11 745.06 379.54 C 744.61 378.97 742.88 375.94 741.23 372.82 C 734.57 360.23 719.98 342.52 706.69 330.87 C 678.96 306.56 657.91 295.16 606.5 276.58 C 574.56 265.04 529.47 256.18 493.55 254.38 L 479.86 253.69 L 480.18 257.59 L 480.5 261.48 L 486 262.22 C 547.08 270.35 594.38 284.16 637.5 306.44 C 656.67 316.35 663.26 320.3 681.07 332.61 C 712.25 354.15 732.48 377.53 745.4 406.97 C 747.93 412.73 749.96 418.36 749.92 419.47 C 749.85 421.26 749.7 421.2 748.67 418.98 C 746.47 414.22 733.54 395.5 725.9 386 C 717.6 375.68 699.65 357.85 690.54 350.87 C 651.44 320.93 612.9 301.51 564.5 287.38 C 539.61 280.11 493.12 270.91 482.03 271.06 L 477.5 271.12 L 481.5 272.98 C 483.7 274.01 491.12 277.46 498 280.64 C 544.18 302.07 593.56 338.28 630.07 377.5 C 647.66 396.4 669.96 428.08 680.83 449.62 C 704.26 496.06 709.84 514.59 708.73 542.22 C 708.14 556.7 705.96 566.27 700.15 579.85 C 698.42 583.9 697 587.39 697 587.6 Z M 125.03 452.14 C 125.05 452.89 126.51 451.71 128.28 449.53 C 135.27 440.9 140.82 434.88 155.56 419.89 C 216.51 357.91 281.39 314.05 360.26 281.48 C 363.98 279.95 366.87 278.54 366.69 278.36 C 365.28 276.95 319.37 288.02 310.59 291.9 C 308.34 292.89 304.25 294.3 301.5 295.03 C 289.14 298.3 257.29 312.42 239.44 322.55 C 224.12 331.25 211.41 341.53 193.19 360 C 179.97 373.39 158 400.14 158 402.84 C 158 403.48 157.56 404 157.02 404 C 156.11 404 134.83 435.46 131.99 441 C 131.29 442.38 129.43 445.14 127.86 447.14 C 126.28 449.15 125.02 451.4 125.03 452.14 Z M 608.69 632.95 C 650.31 634.9 693.07 632.83 710.02 628.03 C 711.95 627.48 714.88 626.87 716.52 626.67 C 723.22 625.84 728.09 623.89 728.91 621.7 C 730.01 618.78 734.29 589.96 733.72 589.39 C 733.47 589.14 731.97 589.58 730.39 590.38 C 711.57 599.76 679.35 606.1 633 609.53 C 625 610.13 624.17 610.41 619 614.33 C 610.75 620.57 607.65 622.59 599.42 627.11 C 595.28 629.38 592.12 631.45 592.39 631.72 C 592.65 631.99 599.99 632.54 608.69 632.95 Z M 412 270.58 C 415.14 271.52 420.88 271.83 431 271.6 C 443.03 271.34 446.61 270.89 452 268.98 C 465.84 264.08 469.97 258.79 466.02 251.04 C 462 243.16 451.7 239.89 430.88 239.87 C 408.5 239.85 392.7 248.72 395.47 259.74 C 395.85 261.25 396.63 263.06 397.21 263.76 C 398.51 265.33 406 268.78 412 270.58 Z M 286.59 293.14 C 286.86 293.58 289.42 292.99 292.29 291.84 C 295.16 290.68 298.74 289.25 300.25 288.65 C 301.76 288.05 303 287.21 303 286.78 C 303 286.35 303.91 286 305.03 286 C 306.15 286 314.59 283.78 323.78 281.07 C 342.15 275.65 358.111 271.661 372.961 269.121 C 378.281 268.211 382.87 267.203 383.32 266.823 C 383.76 266.443 383.81 265.1 383.45 263.64 C 382.91 261.5 382.2 261 379.68 261 C 375.03 261 336.89 271.39 324.42 276.06 C 308.88 281.87 286.01 292.2 286.59 293.14 Z" fill="rgb(4,4,4)"/>
      <path d="M 532.02 629.75 C 532.03 629.06 532.73 624.45 533.59 619.5 C 535.08 610.8 535.5 582.26 534.65 565.3 C 535.46 573.9 535.98 581.82 536.1 588 L 536.24 595.5 L 537.67 585.5 C 539.71 571.28 538.89 532.92 536.07 511 C 533.03 487.27 533.33 488.86 523.5 445 C 520.02 429.49 506.72 389.4 501.85 379.75 C 500.81 377.69 500.31 375.99 500.73 375.98 C 501.15 375.98 500.83 375.55 500.01 375.03 C 498.96 374.36 498.83 373.77 499.57 373.03 C 500.69 371.91 503.2 375.1 513.34 390.5 C 524.33 407.2 541.55 440.82 549.45 461 C 559.08 485.62 568.87 502.11 579.57 511.78 C 598.74 529.08 622.57 530.66 636.85 515.56 C 646.23 505.64 649.96 494.61 649.99 476.69 C 649.99 469.61 649.28 462.37 647.91 455.69 C 645.72 444.97 637.15 418.19 633.82 411.65 C 632.74 409.54 632.02 407.64 632.22 407.44 C 633.23 406.43 662.82 443.95 673.47 459.75 C 676.15 463.74 678.49 467 678.66 467 C 679.08 467 677.57 463.56 675.22 458.87 C 678.45 465.17 681.39 471.35 683.79 477 C 691.72 495.6 694.17 502.54 697.17 514.89 C 699.99 526.46 700.18 528.42 699.77 540.95 C 699.37 553.21 698.98 555.55 695.68 565.5 C 693.68 571.55 690.12 579.87 687.77 584 L 683.5 591.49 L 677 592.66 C 666.88 594.47 639.02 597.36 638.33 596.66 C 637.98 596.32 639.38 593.89 641.43 591.27 C 645.17 586.49 656.38 564.69 657.51 560 L 658.11 557.5 L 655.81 560.12 C 654.54 561.56 651.48 565.33 649.01 568.49 C 641.89 577.59 616.51 601.63 608.13 607.2 C 590.25 619.08 569.97 625.92 540.5 629.99 C 540.16 630.04 539.83 630.09 539.51 630.13 C 533.82 630.92 532.43 631.11 532.11 630.61 C 532 630.45 532.01 630.22 532.01 629.91 C 532.02 629.86 532.02 629.81 532.02 629.75 Z M 387 717.31 C 377.77 716.34 357.52 712.77 349 710.6 C 334.08 706.81 307.2 697.24 287.5 688.71 C 283.1 686.81 274.1 682.91 267.5 680.06 C 232.33 664.83 209.73 659.24 179.47 658.28 C 154.89 657.5 146.13 658.73 110.64 667.93 C 97.39 671.36 92.28 671.71 87.96 669.48 C 85.03 667.96 83.71 665.79 84.24 662.6 C 84.91 663.31 88.81 662.17 104.23 657.66 C 105.4 657.32 106.64 656.96 107.95 656.58 C 136.4 648.27 146.19 646.73 171 646.63 C 193.46 646.54 204.76 647.83 226.51 653 C 247.92 658.09 259.04 662.28 298 679.98 C 329.48 694.27 348.72 700.51 373.5 704.47 C 387.76 706.74 420.54 705.98 434 703.06 C 450.07 699.57 459.8 696.52 473.22 690.74 C 485.81 685.33 503.48 676.14 502.73 675.4 C 502.5 675.17 498.98 676.52 494.91 678.4 C 485.46 682.77 465.7 689.38 452.64 692.54 L 452.28 692.63 C 444.31 694.56 441.37 695.27 440.91 694.49 C 440.63 694.04 441.2 693.08 442.1 691.56 L 442.17 691.44 C 443.86 688.58 444.16 686.84 443.72 682.55 C 443.03 675.85 441.21 672.33 435.79 667.19 C 425.57 657.49 412.53 651.18 358.5 629.78 C 323.66 615.97 288.91 606.34 260 602.46 C 243.7 600.28 205.13 599.42 192 600.95 C 174.91 602.93 146.39 609.58 139.79 613.11 C 136.03 615.13 136.74 613 141.37 608.37 C 143.94 605.8 145.86 603.52 145.64 603.31 C 145.47 603.14 143.54 603.7 140.96 604.63 C 143.95 603.51 146.63 602.61 147.5 602.48 C 148.6 602.31 154.9 601.01 161.5 599.59 C 191.36 593.15 226.76 591.06 256.5 593.97 C 284.34 596.7 325.32 605.37 355.5 614.93 C 387.49 625.06 423.17 634.37 443.5 637.88 C 472.93 642.95 515.36 644.78 544.5 642.23 C 551.65 641.61 560.16 641.41 563.42 641.8 L 569.34 642.5 L 563.42 648.16 C 549.44 661.54 529.37 675.96 503.5 691.21 C 497.35 694.83 478.82 703.19 469 706.77 C 457.32 711.03 438.52 715.23 423.46 716.96 C 415.01 717.92 394.71 718.12 387 717.31 Z M 697 587.6 C 697 587.39 698.42 583.9 700.15 579.85 C 705.96 566.27 708.14 556.7 708.73 542.22 C 709.84 514.59 704.26 496.06 680.83 449.62 C 679.4 446.8 677.78 443.8 676.01 440.69 C 677.78 443.73 679.46 446.74 681.05 449.69 C 683.47 454.2 685.56 457.77 685.71 457.63 C 686.37 456.96 679.16 440 672.29 426.09 C 658.94 399.06 656.401 377.352 634.311 355.342 C 626.681 347.732 607.17 341 607.47 341 C 608.12 341 624.38 351.69 631.5 356.81 C 642.7 364.86 658.41 378.39 674.49 393.86 C 698.12 416.58 705.97 421.87 712.42 419.39 C 715.58 418.18 713.61 404.36 708.41 391.37 C 702.71 377.11 693.94 363.05 681.49 348.21 C 676.72 342.52 673.55 339.02 669.45 335.71 C 676.5 340.45 683.51 345.49 690.54 350.87 C 699.65 357.85 717.6 375.68 725.9 386 C 733.54 395.5 746.47 414.22 748.67 418.98 C 749.7 421.2 749.85 421.26 749.92 419.47 C 749.95 418.61 748.76 415.08 747.05 410.87 C 749.3 416.31 751 421.2 751 422.38 C 751 423.75 751.94 428.61 753.09 433.19 C 756.42 446.43 756.85 474.74 754.03 495.45 C 750.18 523.79 740.38 556.39 730.85 572.53 C 728.85 575.93 729.43 576.86 732.33 575.29 C 730.62 576.4 728.83 577.4 726.95 578.31 C 715.11 583.99 697 589.61 697 587.6 Z M 483 630.35 C 455.33 627.74 434.98 624.59 419.88 620.58 C 414.72 619.21 407.81 617.39 404.52 616.54 C 398.74 615.04 391.93 613.04 366.5 605.38 C 344.1 598.63 310.94 590.1 296.99 587.5 C 280.07 584.34 253.74 581 245.74 581 C 242.51 581 239.04 580.55 238.02 580.01 C 235.2 578.5 233.51 573.48 232.86 564.51 L 252 565.17 C 278.8 566.09 287.07 567.7 338.5 581.99 C 373.34 591.67 404.96 598.55 423.5 600.5 C 453.89 603.69 480.02 601.01 494.28 593.25 C 501.07 589.55 508.01 582.38 511.31 575.63 C 514.45 569.21 516.96 557.72 517.09 549.16 C 517.16 544.24 517.47 545.2 519.43 556.5 C 520.67 563.65 522.28 573.55 523 578.5 C 525.18 593.51 526.15 591.84 525.6 574 C 525.39 566.86 524.66 558.33 523.5 548.95 C 524.71 558.3 525.56 566.97 525.97 574.39 C 526.91 591.58 525.87 611.73 523.44 623.28 C 522.65 627.05 522 630.33 522 630.57 C 522 631.05 488.47 630.87 483 630.35 Z M 608.69 632.95 C 599.99 632.54 592.65 631.99 592.39 631.72 C 592.12 631.45 595.28 629.38 599.42 627.11 C 607.65 622.59 610.75 620.57 619 614.33 C 624.17 610.41 625 610.13 633 609.53 C 679.35 606.1 711.57 599.76 730.39 590.38 C 731.97 589.58 733.47 589.14 733.72 589.39 C 733.72 589.39 733.73 589.4 733.73 589.41 C 733.39 589.23 731.2 590.15 728.78 591.5 L 724.26 594.03 L 723.58 600.92 C 723.2 604.71 722.02 611.48 720.95 615.97 C 719.88 620.45 719 624.49 719 624.93 C 719 625.69 723.03 625.16 725.8 624.31 C 723.58 625.35 720.35 626.19 716.52 626.67 C 714.88 626.87 711.95 627.48 710.02 628.03 C 693.07 632.83 650.31 634.9 608.69 632.95 Z M 125.5 592.32 C 122.81 590.94 120.14 589.19 117.55 587.16 C 118.8 588.12 119.66 588.67 119.79 588.55 C 120 588.33 118.28 585.36 115.96 581.95 C 110.95 574.57 104.71 561.36 103.13 554.81 C 101.14 546.55 101.7 530.28 104.23 522.42 L 106.46 515.5 L 107.1 523 C 108.94 544.32 123.15 560.54 144.86 566.09 C 153.5 568.3 171.1 568.65 190.5 566.99 C 197.1 566.43 206.89 565.71 212.25 565.39 L 222 564.81 L 222 555.07 C 222 553.03 222.09 550.96 222.28 548.86 C 221.7 557.88 222.58 567.86 224.8 574.17 L 226.78 579.82 L 215.14 580.4 C 199.43 581.2 177.57 583.71 166 586.06 C 155.79 588.13 153.78 588.61 141.5 591.93 C 137.1 593.11 132.82 594.27 132 594.49 C 131.18 594.71 128.25 593.73 125.5 592.32 Z M 412 270.58 C 407.64 269.27 402.5 267.09 399.51 265.39 L 399.82 262.74 C 400.18 259.58 400.75 259.49 407.41 261.51 C 413 263.21 430.95 263.53 438.65 262.07 C 451.16 259.69 461 253.72 461 248.5 C 461 246.31 460.12 245.49 455.55 243.4 C 452.82 242.15 449.31 241.22 445.38 240.61 C 456.75 241.96 463.07 245.26 466.02 251.04 C 469.97 258.79 465.84 264.08 452 268.98 C 446.61 270.89 443.03 271.34 431 271.6 C 420.88 271.83 415.14 271.52 412 270.58 Z M 125.03 452.14 C 125.02 451.4 126.28 449.15 127.86 447.14 C 128.8 445.94 129.84 444.47 130.68 443.19 L 126.94 449.5 L 133.64 442.5 C 135.47 440.6 138.81 437.15 142.74 433.11 C 136.65 439.54 132.76 444 128.28 449.53 C 126.51 451.71 125.05 452.89 125.03 452.14 Z M 286.59 293.14 C 286.24 292.57 294.54 288.54 304.6 284.15 C 303.04 284.85 301.51 285.56 300 286.28 C 294.26 289.03 291.38 290.86 292.72 290.91 C 295.04 291 302.26 288.04 302.83 286.75 C 302.91 286.57 303.15 286.41 303.48 286.28 C 303.18 286.41 303 286.59 303 286.78 C 303 287.21 301.76 288.05 300.25 288.65 C 298.74 289.25 295.16 290.68 292.29 291.84 C 289.42 292.99 286.86 293.58 286.59 293.14 Z M 129.75 610.71 C 126.23 613.66 121.23 618.61 111.97 627.9 C 101.57 638.34 94.66 645.74 90.32 651.21 C 95.31 644.61 103.45 635.92 115.14 624.44 C 122.38 617.34 126.6 613.29 129.75 610.71 Z M 633.66 314.54 C 610.22 302.67 584.54 292.86 557.54 285.44 C 560 286.09 562.33 286.74 564.5 287.38 C 589.74 294.75 612.3 303.56 633.66 314.54 Z M 397.25 262.6 L 399.37 265.31 C 398.32 264.71 397.55 264.17 397.21 263.76 C 396.63 263.06 395.85 261.25 395.47 259.74 C 395.41 259.51 395.36 259.28 395.32 259.05 C 395.68 260.23 396.32 261.42 397.25 262.6 Z M 728.52 622.38 C 729.35 619.6 730.98 610.63 732.22 602.74 C 731.04 610.92 729.51 620.12 728.91 621.7 C 728.83 621.93 728.69 622.16 728.52 622.38 Z M 517.02 276.22 C 501.21 273.24 486.41 271 482.03 271.06 C 487.45 270.99 501.33 273.15 517.02 276.22 Z M 232.56 557.18 C 232.54 556.15 232.53 555.09 232.54 554 C 232.57 540.8 232.82 538.79 235.35 531.5 C 237.01 526.7 241.08 518.04 245.58 509.36 C 241.07 518.06 237.03 526.73 235.41 531.5 C 233.06 538.42 232.68 541.18 232.59 552 L 232.56 557.18 Z M 226.03 530.6 C 229.91 518.1 236.65 504.26 246.46 488.5 C 237.11 503.53 230.23 517.71 226.03 530.6 Z M 315.83 279.42 C 318.8 278.21 321.72 277.07 324.42 276.06 C 328 274.72 333.7 272.91 340.11 271.01 C 331.4 273.67 323.33 276.47 315.83 279.42 Z M 666.91 443.52 C 660.06 431.7 652.43 419.89 647.43 413.41 C 653.31 421.03 660.3 431.93 666.91 443.52 Z M 397.17 251.24 C 399.23 248.32 402.79 245.8 407.47 243.87 C 406.98 244.09 406.51 244.32 406.06 244.55 C 401.97 246.7 399 248.95 397.17 251.24 Z M 532.16 543.15 C 530.33 530.18 528.42 518.44 527.04 511.83 C 526.26 508.09 525.51 504.58 524.8 501.23 C 525.52 504.62 526.28 508.19 527.08 512 C 528.88 520.61 530.66 531.72 532.16 543.15 Z M 132.04 440.91 C 133.45 438.2 138.85 429.89 144.28 421.83 C 139.86 428.46 135.22 435.65 132.04 440.91 Z M 374.03 261.97 C 376.81 261.36 378.82 261 379.68 261 C 382.2 261 382.91 261.5 383.45 263.64 C 382.83 261.17 381.52 260.42 374.03 261.97 Z M 749.64 554.91 C 753.68 546.49 756.96 535.83 759.46 523 C 756.9 536.14 753.73 546.6 749.64 554.91 Z M 726.07 374.17 C 714.47 359.06 699.74 345.51 681.09 332.63 C 699.87 345.6 714.5 359.03 726.07 374.17 Z M 657.17 411.44 C 648.26 398.86 638.61 386.67 630.07 377.5 C 638.76 386.84 648.22 398.76 657.17 411.44 Z M 95.55 557.53 C 95.19 556.63 94.85 555.73 94.53 554.82 C 94.15 553.72 93.68 551.92 93.22 549.85 C 93.85 552.57 94.61 555.09 95.55 557.53 Z M 104.26 573.17 C 102.81 571.17 101.46 569.1 100.21 566.98 C 101.39 568.95 102.73 570.99 104.26 573.17 Z M 156.92 404.06 C 156.97 404.02 157 404 157.02 404 L 157.04 404 C 157.01 404 156.97 404.02 156.92 404.06 Z" fill="rgb(70,70,68)"/>
      <path d="M 232.56 557.18 L 232.59 552 C 232.68 541.18 233.06 538.42 235.41 531.5 C 237.03 526.73 241.07 518.07 245.57 509.36 L 245.58 509.36 C 249.34 502.09 253.41 494.82 256.63 489.79 C 259.12 485.91 264.78 476.83 269.19 469.61 C 273.61 462.4 277.74 456.17 278.36 455.77 C 278.99 455.36 279.17 455.02 278.78 455.02 C 278.38 455.01 279.46 452.64 281.19 449.75 C 282.91 446.86 288.23 437.75 293 429.5 C 323 377.67 337.38 356.17 358.58 331.5 C 371.56 316.39 386.8 301.45 400.33 290.56 L 409.88 282.88 L 415.62 283.94 C 418.78 284.52 425.09 285 429.64 285 L 437.893 284.901 C 437.893 284.901 443.53 294.98 443.62 295.64 C 443.72 296.31 445.12 298.8 446.72 301.18 C 448.33 303.55 452.62 311.8 456.25 319.5 C 466.11 340.38 468.48 345.78 471.36 353.78 C 472.8 357.78 474.61 362.28 475.38 363.78 C 477.32 367.53 487.73 397.93 490.01 406.5 C 491.04 410.35 493.03 416.83 494.43 420.89 C 495.83 424.96 497.68 431.26 498.54 434.89 C 499.41 438.53 501.42 445.77 503.01 451 C 504.61 456.23 506.59 463.42 507.41 467 C 508.23 470.58 510.5 480.25 512.45 488.5 C 517.09 508.11 521.03 529.92 523.5 548.95 C 524.66 558.33 525.39 566.86 525.6 574 C 526.15 591.84 525.18 593.51 523 578.5 C 522.28 573.55 520.67 563.65 519.43 556.5 C 517.47 545.2 517.16 544.24 517.09 549.16 C 516.96 557.72 514.45 569.21 511.31 575.63 C 508.01 582.38 501.07 589.55 494.28 593.25 C 480.02 601.01 453.89 603.69 423.5 600.5 C 404.96 598.55 373.34 591.67 338.5 581.99 C 287.07 567.7 278.8 566.09 252 565.17 L 232.86 564.51 C 232.69 562.31 232.59 559.86 232.56 557.18 Z M 223.85 538.11 C 223.05 541.27 222.53 544.98 222.28 548.86 C 222.09 550.96 222 553.03 222 555.07 L 222 564.81 L 212.25 565.39 C 206.89 565.71 197.1 566.43 190.5 566.99 C 171.1 568.65 153.5 568.3 144.86 566.09 C 123.15 560.54 108.94 544.32 107.1 523 L 106.46 515.5 L 104.23 522.42 C 101.7 530.28 101.14 546.55 103.13 554.81 C 104.71 561.36 110.95 574.57 115.96 581.95 C 118.28 585.36 120 588.33 119.79 588.55 C 119.66 588.67 118.8 588.12 117.55 587.16 C 112.72 583.36 108.16 578.54 104.26 573.17 C 102.73 570.99 101.39 568.95 100.21 566.98 C 98.41 563.92 96.84 560.75 95.55 557.53 C 94.61 555.09 93.85 552.57 93.22 549.85 C 92.69 547.47 92.17 544.73 91.82 542.32 C 88.83 521.98 96.84 502.49 120.1 473.51 C 151.48 434.41 187.05 399.12 223.46 370.97 C 232.98 363.61 237.74 360.13 253.5 349.02 C 275.93 333.2 330.61 302.96 348.5 296.48 C 351.25 295.48 353.93 294.29 354.45 293.83 C 354.97 293.38 356.17 293 357.12 293 C 358.06 293 358.98 292.63 359.17 292.19 C 359.67 290.95 393.94 277.84 395.75 278.19 C 398.76 278.78 398.12 280.9 394.04 283.85 C 379.94 294.07 352.66 322.47 337.22 343 C 333.29 348.23 329.22 353.62 328.18 355 C 325.37 358.69 315.76 372.96 313.37 377 C 312.22 378.92 308.29 385.37 304.62 391.32 C 300.96 397.27 296.84 404.25 295.47 406.82 C 292.87 411.72 290.52 415.79 287.89 420 C 287.02 421.38 284.37 425.88 282 430 C 279.62 434.12 275.5 441 272.84 445.28 C 270.18 449.56 268 453.27 268 453.52 C 268 453.77 264.55 459.49 260.34 466.24 C 256.13 472.98 249.89 483 246.46 488.5 C 237.11 503.53 230.23 517.71 226.03 530.6 C 225.2 533.16 224.47 535.66 223.85 538.11 Z M 666.91 443.52 C 669.79 448.58 672.6 453.76 675.22 458.87 C 677.57 463.57 679.08 467 678.66 467 C 678.49 467 676.15 463.74 673.47 459.75 C 662.82 443.95 633.23 406.43 632.22 407.44 C 632.02 407.64 632.74 409.54 633.82 411.65 C 637.15 418.19 645.72 444.97 647.91 455.69 C 649.28 462.37 649.99 469.61 649.99 476.69 C 649.96 494.61 646.23 505.64 636.85 515.56 C 622.57 530.66 598.74 529.08 579.57 511.78 C 568.87 502.11 559.08 485.62 549.45 461 C 541.55 440.82 524.33 407.2 513.34 390.5 C 503.2 375.1 500.69 371.91 499.57 373.03 C 498.83 373.77 498.96 374.36 500.01 375.03 C 500.83 375.55 501.15 375.98 500.73 375.98 C 500.31 375.99 500.81 377.69 501.85 379.75 C 506.72 389.4 520.02 429.49 523.5 445 C 533.33 488.86 533.03 487.27 536.07 511 C 538.89 532.92 539.71 571.28 537.67 585.5 L 536.24 595.5 L 536.1 588 C 535.98 581.82 535.46 573.9 534.65 565.3 C 534.48 561.77 534.25 558.74 533.96 556.5 C 533.38 552.01 532.78 547.51 532.16 543.15 C 530.66 531.72 528.88 520.61 527.08 512 C 526.28 508.19 525.52 504.62 524.8 501.23 C 518.68 472.64 514.47 456.39 502.87 415.5 C 497.25 395.68 488.75 371.49 478.79 347 C 476 340.12 473.7 333.94 473.69 333.25 C 473.68 332.56 473.27 332 472.77 332 C 472.28 332 472.14 331.59 472.45 331.09 C 472.76 330.58 472.63 330.02 472.16 329.84 C 471.69 329.65 469.6 325.67 467.52 321 C 465.44 316.33 461.83 308.9 459.49 304.5 C 457.15 300.1 454.95 295.26 454.6 293.75 C 454.25 292.24 453.53 291 453 291 C 452.48 291 451.18 289.32 450.13 287.26 L 448.21 283.51 L 455.85 280.7 C 460.06 279.16 464.29 277.64 465.25 277.33 C 467.61 276.57 474.94 279.59 497.5 290.61 C 524.15 303.62 546.87 317.55 567.35 333.42 C 571.67 336.76 576.2 340.17 577.42 341 C 581.62 343.85 606.53 366.5 615.34 375.49 C 623.68 383.99 633.82 395.64 640.51 404.41 C 642.16 406.57 645.27 410.62 647.43 413.41 C 652.43 419.89 660.06 431.7 666.91 443.52 Z M 129.75 610.71 C 133.08 607.98 135.22 606.9 138.5 605.59 C 139.32 605.26 140.15 604.94 140.96 604.63 C 143.54 603.7 145.47 603.14 145.64 603.31 C 145.86 603.52 143.94 605.8 141.37 608.37 C 136.74 613 136.03 615.13 139.79 613.11 C 146.39 609.58 174.91 602.93 192 600.95 C 205.13 599.42 243.7 600.28 260 602.46 C 288.91 606.34 323.66 615.97 358.5 629.78 C 412.53 651.18 425.57 657.49 435.79 667.19 C 441.21 672.33 443.03 675.85 443.72 682.55 C 444.16 686.84 443.86 688.58 442.17 691.44 L 442.1 691.56 C 441.2 693.08 440.63 694.04 440.91 694.49 C 441.37 695.27 444.31 694.56 452.28 692.63 L 452.64 692.54 C 465.7 689.38 485.46 682.77 494.91 678.4 C 498.98 676.52 502.5 675.17 502.73 675.4 C 503.48 676.14 485.81 685.33 473.22 690.74 C 459.8 696.52 450.07 699.57 434 703.06 C 420.54 705.98 387.76 706.74 373.5 704.47 C 348.72 700.51 329.48 694.27 298 679.98 C 259.04 662.28 247.92 658.09 226.51 653 C 204.76 647.83 193.46 646.54 171 646.63 C 146.19 646.73 136.4 648.27 107.95 656.58 C 106.64 656.96 105.4 657.32 104.23 657.66 C 88.81 662.17 84.91 663.31 84.24 662.6 C 84.72 659.73 86.69 656.02 90.32 651.21 C 94.66 645.74 101.57 638.34 111.97 627.9 C 121.23 618.61 126.23 613.66 129.75 610.71 Z M 749.64 554.91 C 745.13 564.07 739.5 570.63 732.33 575.29 C 729.43 576.86 728.85 575.93 730.85 572.53 C 740.38 556.39 750.18 523.79 754.03 495.45 C 756.85 474.74 756.42 446.43 753.09 433.19 C 751.94 428.61 751 423.75 751 422.38 C 751 421.2 749.3 416.31 747.05 410.87 C 746.54 409.61 745.98 408.29 745.4 406.97 C 740.21 395.15 733.84 384.3 726.06 374.16 C 714.5 359.02 699.87 345.6 681.09 332.63 L 681.09 332.62 L 681.07 332.61 C 663.26 320.3 656.67 316.35 637.5 306.44 C 594.38 284.16 547.08 270.35 486 262.22 L 480.5 261.48 L 480.18 257.59 L 479.86 253.69 L 493.55 254.38 C 529.47 256.18 574.56 265.04 606.5 276.58 C 657.91 295.16 678.96 306.56 706.69 330.87 C 719.98 342.52 734.57 360.23 741.23 372.82 C 742.88 375.94 744.61 378.97 745.06 379.54 C 745.52 380.11 748.37 386.88 751.4 394.58 C 766.19 432.15 768.87 474.76 759.46 523 C 756.9 536.14 753.73 546.6 749.64 554.91 Z M 657.17 411.44 C 658.109 411.226 611.847 352.77 567.401 322.305 C 532.17 298.156 494.765 276.432 474.05 272.147 C 474.532 269.494 538.922 268.702 633.388 313.4 C 645.618 319.7 657.73 327.85 669.45 335.71 C 673.55 339.02 676.72 342.52 681.49 348.21 C 693.94 363.05 702.71 377.11 708.41 391.37 C 713.61 404.36 715.58 418.18 712.42 419.39 C 705.97 421.87 698.12 416.58 674.49 393.86 C 664.84 384.58 655.33 375.99 646.84 368.87 L 659.021 392.762 C 666.331 403.292 666.35 414.06 672.29 426.09 C 679.16 440 686.37 456.96 685.71 457.63 C 685.56 457.77 683.47 454.2 681.05 449.69 C 679.46 446.74 677.78 443.73 676.01 440.69 C 670.8 431.56 664.21 421.37 657.17 411.44 Z M 156.92 404.06 C 156.97 404.02 157.01 404 157.04 404 C 157.57 403.99 158 403.47 158 402.84 C 158 400.14 179.97 373.39 193.19 360 C 211.41 341.53 224.12 331.25 239.44 322.55 C 257.29 312.42 289.14 298.3 301.5 295.03 C 304.25 294.3 308.34 292.89 310.59 291.9 C 319.37 288.02 365.28 276.95 366.69 278.36 C 366.87 278.54 363.98 279.95 360.26 281.48 C 281.39 314.05 216.51 357.91 155.56 419.89 C 150.26 425.27 146.15 429.5 142.74 433.11 C 138.81 437.15 135.47 440.6 133.64 442.5 L 126.94 449.5 L 130.68 443.19 C 131.24 442.33 131.71 441.55 131.99 441 C 132.01 440.97 132.02 440.94 132.04 440.91 C 135.22 435.65 139.86 428.47 144.28 421.83 C 150.12 413.17 155.98 404.81 156.92 404.06 Z M 397.25 262.6 C 396.32 261.42 395.68 260.23 395.32 259.05 C 394.81 256.26 395.5 253.62 397.17 251.24 C 399 248.95 401.97 246.7 406.06 244.55 C 406.51 244.32 406.98 244.09 407.47 243.87 C 413.61 241.35 421.69 239.86 430.88 239.87 C 436.44 239.87 441.24 240.11 445.38 240.61 C 449.31 241.22 452.82 242.15 455.55 243.4 C 460.12 245.49 461 246.31 461 248.5 C 461 253.72 451.16 259.69 438.65 262.07 C 430.95 263.53 413 263.21 407.41 261.51 C 400.75 259.49 400.18 259.58 399.82 262.74 L 399.51 265.39 C 399.46 265.37 399.42 265.34 399.37 265.31 L 397.25 262.6 Z M 315.83 279.42 C 323.33 276.47 331.4 273.67 340.11 271.01 C 351.89 267.51 366.1 263.71 374.03 261.97 C 381.52 260.42 382.83 261.17 383.45 263.64 C 383.81 265.1 383.75 266.6 383.31 266.98 C 382.86 267.36 342.15 275.65 323.78 281.07 C 314.59 283.78 306.731 287.02 305.611 287.02 C 304.991 287.02 295.04 291 292.72 290.91 C 291.38 290.86 294.26 289.03 300 286.28 C 301.51 285.57 303.04 284.85 304.59 284.15 L 304.6 284.15 C 308.22 282.57 312.07 280.95 315.83 279.42 Z M 728.52 622.38 C 727.99 623.07 727.06 623.72 725.8 624.31 C 723.03 625.16 719 625.69 719 624.93 C 719 624.49 719.88 620.45 720.95 615.97 C 722.02 611.48 723.2 604.71 723.58 600.92 L 724.26 594.03 L 728.78 591.5 C 731.2 590.15 733.39 589.23 733.73 589.41 C 733.95 589.88 733.21 595.96 732.22 602.74 C 730.98 610.63 729.35 619.6 728.52 622.38 Z M 414 244.88 C 414 246.64 415.4 246.2 416.77 244 C 417.88 242.22 417.77 242 415.76 242.05 C 414.52 242.07 412.15 242.71 410.5 243.48 L 407.5 244.86 L 410.75 244.31 C 412.82 243.95 414 244.16 414 244.88 Z M 85.02 661.25 C 85 662.15 85.37 662.18 87.37 661.41 C 88.58 660.95 88.65 660.54 87.71 659.52 C 86.54 658.26 85.06 659.21 85.02 661.25 Z" fill="rgb(165,165,163)"/>
    </g>
  </g>
</svg>
