<svg xmlns="http://www.w3.org/2000/svg" viewBox="0 0 960 200" width="100%">
<style>text{font-family:"SF Mono","Fira Code",Menlo,"Courier New",monospace}</style>
<defs>
  <linearGradient id="pf-bg" x1="0%" y1="0%" x2="100%" y2="100%">
    <stop offset="0%" stop-color="#0f0f1a"/>
    <stop offset="100%" stop-color="#1a1a2e"/>
  </linearGradient>
  <linearGradient id="pf-gl" x1="0%" y1="0%" x2="100%" y2="0%">
    <stop offset="0%"   stop-color="#f59e0b" stop-opacity="0"/>
    <stop offset="30%"  stop-color="#f59e0b" stop-opacity="0.9"/>
    <stop offset="50%"  stop-color="#fbbf24" stop-opacity="1"/>
    <stop offset="70%"  stop-color="#f59e0b" stop-opacity="0.9"/>
    <stop offset="100%" stop-color="#f59e0b" stop-opacity="0"/>
  </linearGradient>
  <marker id="pf-arr" markerWidth="10" markerHeight="7" refX="9" refY="3.5" orient="auto">
    <polygon points="0 0, 10 3.5, 0 7" fill="#d97706"/>
  </marker>
</defs>
<rect width="960" height="200" fill="url(#pf-bg)"/>
<rect x="42" y="18" width="126" height="164" fill="#0f172a" stroke="#1c1917" stroke-width="0.5"/>
<rect x="42" y="18" width="126" height="2" fill="url(#pf-gl)"/>
<circle cx="53" cy="33" r="3.5" fill="#f59e0b" opacity="0.9"/>
<text x="62" y="37" font-size="9" fill="#f59e0b" font-weight="700" letter-spacing="0.1em">01</text>
<text x="52" y="61" font-size="12" fill="#f1f5f9" font-weight="700" font-family="-apple-system,BlinkMacSystemFont,'Segoe UI',sans-serif">Reconnaissance</text>
<text x="52" y="81"    font-size="8.5" fill="#4b5563">gangsta:</text>
<text x="52" y="92" font-size="8.5" fill="#4b5563">:reconnaissance</text>
<line x1="50" y1="148" x2="160" y2="148" stroke="#1c2026" stroke-width="1"/>
<text x="52" y="158" font-size="7" fill="#57534e" letter-spacing="0.12em">GATE</text>
<text x="52" y="171" font-size="11" fill="#f59e0b" font-weight="600" letter-spacing="0.04em">Dossier</text>
<line x1="169" y1="100" x2="191" y2="100" stroke="#92400e" stroke-width="1.5" marker-end="url(#pf-arr)"/>
<rect x="192" y="18" width="126" height="164" fill="#0f172a" stroke="#1c1917" stroke-width="0.5"/>
<rect x="192" y="18" width="126" height="2" fill="url(#pf-gl)"/>
<circle cx="203" cy="33" r="3.5" fill="#f59e0b" opacity="0.9"/>
<text x="212" y="37" font-size="9" fill="#f59e0b" font-weight="700" letter-spacing="0.1em">02</text>
<text x="202" y="61" font-size="12" fill="#f1f5f9" font-weight="700" font-family="-apple-system,BlinkMacSystemFont,'Segoe UI',sans-serif">The Grilling</text>
<text x="202" y="81"    font-size="8.5" fill="#4b5563">gangsta:</text>
<text x="202" y="92" font-size="8.5" fill="#4b5563">:the-grilling</text>
<line x1="200" y1="148" x2="310" y2="148" stroke="#1c2026" stroke-width="1"/>
<text x="202" y="158" font-size="7" fill="#57534e" letter-spacing="0.12em">GATE</text>
<text x="202" y="171" font-size="11" fill="#f59e0b" font-weight="600" letter-spacing="0.04em">Consensus</text>
<line x1="319" y1="100" x2="341" y2="100" stroke="#92400e" stroke-width="1.5" marker-end="url(#pf-arr)"/>
<rect x="342" y="18" width="126" height="164" fill="#0f172a" stroke="#1c1917" stroke-width="0.5"/>
<rect x="342" y="18" width="126" height="2" fill="url(#pf-gl)"/>
<circle cx="353" cy="33" r="3.5" fill="#f59e0b" opacity="0.9"/>
<text x="362" y="37" font-size="9" fill="#f59e0b" font-weight="700" letter-spacing="0.1em">03</text>
<text x="352" y="61" font-size="12" fill="#f1f5f9" font-weight="700" font-family="-apple-system,BlinkMacSystemFont,'Segoe UI',sans-serif">The Sit-Down</text>
<text x="352" y="81"    font-size="8.5" fill="#4b5563">gangsta:</text>
<text x="352" y="92" font-size="8.5" fill="#4b5563">:the-sit-down</text>
<line x1="350" y1="148" x2="460" y2="148" stroke="#1c2026" stroke-width="1"/>
<text x="352" y="158" font-size="7" fill="#57534e" letter-spacing="0.12em">GATE</text>
<text x="352" y="171" font-size="11" fill="#f59e0b" font-weight="600" letter-spacing="0.04em">Contract</text>
<line x1="469" y1="100" x2="491" y2="100" stroke="#92400e" stroke-width="1.5" marker-end="url(#pf-arr)"/>
<rect x="492" y="18" width="126" height="164" fill="#0f172a" stroke="#1c1917" stroke-width="0.5"/>
<rect x="492" y="18" width="126" height="2" fill="url(#pf-gl)"/>
<circle cx="503" cy="33" r="3.5" fill="#f59e0b" opacity="0.9"/>
<text x="512" y="37" font-size="9" fill="#f59e0b" font-weight="700" letter-spacing="0.1em">04</text>
<text x="502" y="58" font-size="12" fill="#f1f5f9" font-weight="700" font-family="-apple-system,BlinkMacSystemFont,'Segoe UI',sans-serif">Resource</text>
<text x="502" y="72" font-size="12" fill="#f1f5f9" font-weight="700" font-family="-apple-system,BlinkMacSystemFont,'Segoe UI',sans-serif">Development</text>
<text x="502" y="92"    font-size="8.5" fill="#4b5563">gangsta:</text>
<text x="502" y="103" font-size="8.5" fill="#4b5563">:resource-dev</text>
<line x1="500" y1="148" x2="610" y2="148" stroke="#1c2026" stroke-width="1"/>
<text x="502" y="158" font-size="7" fill="#57534e" letter-spacing="0.12em">GATE</text>
<text x="502" y="171" font-size="11" fill="#f59e0b" font-weight="600" letter-spacing="0.04em">War Plan</text>
<line x1="619" y1="100" x2="641" y2="100" stroke="#92400e" stroke-width="1.5" marker-end="url(#pf-arr)"/>
<rect x="642" y="18" width="126" height="164" fill="#0f172a" stroke="#1c1917" stroke-width="0.5"/>
<rect x="642" y="18" width="126" height="2" fill="url(#pf-gl)"/>
<circle cx="653" cy="33" r="3.5" fill="#f59e0b" opacity="0.9"/>
<text x="662" y="37" font-size="9" fill="#f59e0b" font-weight="700" letter-spacing="0.1em">05</text>
<text x="652" y="61" font-size="12" fill="#f1f5f9" font-weight="700" font-family="-apple-system,BlinkMacSystemFont,'Segoe UI',sans-serif">The Hit</text>
<text x="652" y="81"    font-size="8.5" fill="#4b5563">gangsta:</text>
<text x="652" y="92" font-size="8.5" fill="#4b5563">:the-hit</text>
<line x1="650" y1="148" x2="760" y2="148" stroke="#1c2026" stroke-width="1"/>
<text x="652" y="158" font-size="7" fill="#57534e" letter-spacing="0.12em">GATE</text>
<text x="652" y="171" font-size="11" fill="#f59e0b" font-weight="600" letter-spacing="0.04em">Completion</text>
<line x1="769" y1="100" x2="791" y2="100" stroke="#92400e" stroke-width="1.5" marker-end="url(#pf-arr)"/>
<rect x="792" y="18" width="126" height="164" fill="#0f172a" stroke="#1c1917" stroke-width="0.5"/>
<rect x="792" y="18" width="126" height="2" fill="url(#pf-gl)"/>
<circle cx="803" cy="33" r="3.5" fill="#f59e0b" opacity="0.9"/>
<text x="812" y="37" font-size="9" fill="#f59e0b" font-weight="700" letter-spacing="0.1em">06</text>
<text x="802" y="61" font-size="12" fill="#f1f5f9" font-weight="700" font-family="-apple-system,BlinkMacSystemFont,'Segoe UI',sans-serif">Laundering</text>
<text x="802" y="81"    font-size="8.5" fill="#4b5563">gangsta:</text>
<text x="802" y="92" font-size="8.5" fill="#4b5563">:laundering</text>
<line x1="800" y1="148" x2="910" y2="148" stroke="#1c2026" stroke-width="1"/>
<text x="802" y="158" font-size="7" fill="#57534e" letter-spacing="0.12em">GATE</text>
<text x="802" y="171" font-size="11" fill="#f59e0b" font-weight="600" letter-spacing="0.04em">Ledger</text>
</svg>